HIERARCHY
ROOT root
{
  OFFSET 0.0000 0.0000 0.0000
  CHANNELS 6 Xposition Yposition Zposition Zrotation Xrotation Yrotation
  JOINT lowerback
  {
    OFFSET 0.0000 0.0000 0.0000
    CHANNELS 3 Zrotation Xrotation Yrotation
    JOINT upperback
    {
      OFFSET -0.2975 11.0962 -0.4289
      CHANNELS 3 Zrotation Xrotation Yrotation
      JOINT thorax
      {
        OFFSET -0.0009 11.0405 -0.3169
        CHANNELS 3 Zrotation Xrotation Yrotation
        JOINT neck
        {
          OFFSET 0.1944 11.1642 0.0841
          CHANNELS 3 Zrotation Xrotation Yrotation
          JOINT head
          {
            OFFSET 1.6277 15.5530 -0.6089
            CHANNELS 3 Zrotation Xrotation Yrotation
            End Site
            {
                OFFSET -0.0000 0.0000 0.0000
            }
          }
        }
      }
      JOINT lshoulderjoint
      {
        OFFSET -0.0009 11.0405 -0.3169
        CHANNELS 3 Zrotation Xrotation Yrotation
        JOINT lhumerus
        {
          OFFSET 14.1669 18.7170 0.1105
          CHANNELS 3 Zrotation Xrotation Yrotation
          JOINT lradius
          {
            OFFSET 29.5186 0.0000 0.0000
            CHANNELS 3 Zrotation Xrotation Yrotation
            JOINT lhand
            {
              OFFSET 23.9354 0.0000 0.0000
              CHANNELS 3 Zrotation Xrotation Yrotation
              End Site
              {
                  OFFSET 0.0000 -0.0000 0.0000
              }
            }
          }
        }
      }
      JOINT rshoulderjoint
      {
        OFFSET -0.0009 11.0405 -0.3169
        CHANNELS 3 Zrotation Xrotation Yrotation
        JOINT rhumerus
        {
          OFFSET -14.2042 18.2168 -0.2511
          CHANNELS 3 Zrotation Xrotation Yrotation
          JOINT rradius
          {
            OFFSET -29.7619 0.0000 0.0000
            CHANNELS 3 Zrotation Xrotation Yrotation
            JOINT rhand
            {
              OFFSET -25.1658 0.0000 0.0000
              CHANNELS 3 Zrotation Xrotation Yrotation
              End Site
              {
                  OFFSET 0.0000 0.0000 0.0000
              }
            }
          }
        }
      }
    }
  }
  JOINT rfemur
  {
    OFFSET -7.7032 -9.8555 2.1513
    CHANNELS 3 Zrotation Xrotation Yrotation
    JOINT rtibia
    {
      OFFSET -7.1353 -40.4666 0.0000
      CHANNELS 3 Zrotation Xrotation Yrotation
      JOINT rfoot
      {
        OFFSET -6.6645 -37.7961 0.0000
        CHANNELS 3 Zrotation Xrotation Yrotation
        JOINT rtoes
        {
          OFFSET -3.4134 -6.6508 11.8768
          CHANNELS 3 Zrotation Xrotation Yrotation
          End Site
          {
              OFFSET 0.0000 0.0000 0.0000
          }
        }
      }
    }
  }
  JOINT lfemur
  {
    OFFSET 8.5590 -9.8555 2.1513
    CHANNELS 3 Zrotation Xrotation Yrotation
    JOINT ltibia
    {
      OFFSET 7.2751 -41.2593 0.0000
      CHANNELS 3 Zrotation Xrotation Yrotation
      JOINT lfoot
      {
        OFFSET 6.5686 -37.2525 -0.0000
        CHANNELS 3 Zrotation Xrotation Yrotation
        JOINT ltoes
        {
          OFFSET 3.2326 -4.1860 10.4122
          CHANNELS 3 Zrotation Xrotation Yrotation
          End Site
          {
              OFFSET -0.0000 -0.0000 0.0000
          }
        }
      }
    }
  }
}
MOTION
Frames:	16
Frame Time:	0.008333
-159.4884 94.9058 -200.7184 -4.80 7.97 33.68 -2.74 -16.62 0.77 -0.06 -1.51 1.53 3.41 14.97 0.33 0.00 0.00 0.00 0.00 0.00 0.00 -83.25 -1.08 -165.30 -2.89 -12.09 -155.20 0.00 -0.00 -54.49 24.69 34.00 8.65 91.62 2.45 164.76 13.67 -10.12 172.41 -0.00 -0.00 72.21 -16.04 36.85 -12.59 3.02 3.34 -16.60 1.01 24.56 -4.62 -2.20 7.88 19.39 0.00 -0.00 0.00 -6.49 -41.23 12.40 -2.08 33.94 6.81 0.00 -0.00 0.00 0.00 -0.00 0.00
-158.7444 94.9996 -199.9552 -4.46 7.98 33.61 -2.81 -16.23 0.54 -0.41 -1.61 1.27 2.98 14.53 0.25 0.00 0.00 0.00 0.00 0.00 0.00 -83.50 -1.33 -165.81 -3.01 -12.34 -155.16 0.00 -0.00 -53.57 24.99 34.80 8.72 91.55 2.62 165.13 13.05 -10.18 171.62 -0.00 -0.00 72.19 -16.00 36.97 -12.33 2.34 1.99 -15.11 1.35 28.03 -5.39 -2.43 8.85 18.18 0.00 0.00 0.00 -6.98 -40.68 11.84 -2.19 34.69 7.01 0.00 0.00 0.00 0.00 0.00 0.00
-157.9913 95.1225 -199.2295 -4.05 7.90 33.64 -2.65 -15.66 0.24 -0.85 -1.60 0.88 2.20 14.03 0.14 0.00 0.00 0.00 0.00 0.00 0.00 -83.87 -1.82 -166.43 -3.36 -12.11 -155.39 0.00 -0.00 -53.10 23.10 38.94 13.55 91.33 3.04 165.50 12.42 -10.14 170.80 -0.00 -0.00 72.26 -15.97 37.26 -12.34 1.60 0.41 -13.94 1.80 31.85 -6.29 -2.77 10.31 16.97 0.00 -0.00 0.00 -5.68 -40.22 16.29 -2.22 34.90 7.06 0.00 0.00 0.00 0.00 0.00 0.00
-157.2877 95.2503 -198.4807 -3.72 7.84 33.55 -2.77 -15.39 0.14 -1.11 -1.54 0.79 2.02 13.84 0.10 0.00 0.00 0.00 0.00 0.00 0.00 -83.98 -1.78 -166.63 -3.16 -13.45 -155.04 0.00 -0.00 -52.87 24.87 35.33 12.67 91.30 2.96 165.69 12.06 -10.55 170.13 -0.00 -0.00 72.13 -16.58 37.01 -11.73 1.04 -1.39 -12.55 2.36 35.81 -7.31 -3.22 12.53 15.37 0.00 0.18 -0.03 -8.13 -38.95 10.91 -2.23 34.95 7.08 0.00 0.00 0.00 0.00 0.00 0.00
-156.6339 95.3907 -197.7558 -3.37 7.71 33.38 -3.08 -15.11 0.14 -1.29 -1.38 0.85 2.18 13.71 0.11 0.00 0.00 0.00 0.00 0.00 0.00 -83.97 -1.53 -166.71 -3.22 -14.13 -155.26 0.00 -0.00 -52.39 24.41 32.72 10.09 91.40 2.68 165.87 11.72 -10.74 169.56 -0.00 -0.00 71.99 -16.69 36.65 -11.45 0.64 -3.08 -11.26 2.98 39.37 -8.32 -3.67 15.09 13.92 0.00 0.14 -0.02 -8.77 -37.91 9.94 -2.25 35.09 7.12 0.00 0.00 0.00 0.00 0.00 0.00
-155.9966 95.5086 -197.0331 -3.22 7.72 33.08 -3.19 -15.08 0.11 -1.43 -1.32 0.85 2.15 13.74 0.10 0.00 0.00 0.00 0.00 0.00 0.00 -84.01 -1.46 -166.67 -3.36 -14.81 -155.77 0.00 -0.00 -51.93 23.54 31.93 10.30 91.29 2.62 165.86 11.07 -10.44 169.10 -0.00 -0.00 71.79 -15.09 37.24 -13.05 0.50 -5.12 -9.68 3.72 42.94 -9.44 -4.06 17.94 12.40 0.00 0.09 -0.02 -8.74 -37.18 10.51 -2.25 35.10 7.12 0.00 0.00 0.00 0.00 0.00 0.00
-155.3327 95.6285 -196.3260 -3.02 7.73 32.86 -3.34 -15.14 0.06 -1.54 -1.25 0.83 2.17 13.87 0.08 0.00 0.00 0.00 0.00 0.00 0.00 -84.04 -1.39 -166.53 -3.62 -15.39 -156.55 0.00 -0.00 -51.53 22.08 32.69 12.58 91.18 2.59 165.74 10.69 -10.64 168.70 -0.00 -0.00 71.57 -12.54 37.99 -16.44 0.36 -7.14 -8.30 4.58 46.39 -10.66 -4.38 21.06 10.89 0.00 -0.15 0.03 -8.78 -36.34 11.10 -2.24 35.04 7.10 0.00 0.00 0.00 0.00 0.00 0.00
-154.6624 95.7290 -195.6331 -2.78 7.88 32.73 -3.59 -15.20 -0.03 -1.70 -1.22 0.78 2.23 13.95 0.03 0.00 0.00 0.00 0.00 0.00 0.00 -84.04 -1.24 -166.43 -3.84 -15.75 -157.16 0.00 -0.00 -50.92 20.58 34.09 12.79 91.07 2.47 165.67 10.28 -10.70 168.24 -0.00 -0.00 71.40 -10.89 38.20 -18.30 -0.03 -9.34 -7.40 5.59 49.74 -12.02 -4.68 24.26 9.67 0.00 -0.47 0.08 -8.97 -35.67 11.67 -2.23 34.95 7.08 0.00 0.00 0.00 0.00 0.00 0.00
-153.9949 95.8507 -194.9412 -2.42 7.95 32.42 -3.90 -15.22 -0.06 -1.85 -1.10 0.81 2.40 14.09 0.01 0.00 0.00 0.00 0.00 0.00 0.00 -84.13 -1.04 -166.26 -4.01 -16.13 -157.58 0.00 -0.00 -50.38 20.53 34.90 11.90 91.09 2.25 165.59 9.98 -10.80 167.78 -0.00 -0.00 71.28 -10.43 38.14 -18.21 -0.54 -11.43 -6.65 6.72 52.87 -13.47 -4.84 27.24 8.47 0.00 -0.84 0.15 -9.43 -34.66 11.63 -2.20 34.78 7.03 0.00 0.00 0.00 0.00 0.00 0.00
-153.3459 95.9508 -194.2450 -2.16 7.87 32.28 -4.00 -15.13 -0.11 -2.02 -0.93 0.78 2.33 14.16 -0.01 0.00 0.00 0.00 0.00 0.00 0.00 -84.21 -0.77 -166.14 -4.21 -16.31 -158.37 0.00 -0.00 -49.83 19.73 35.33 12.80 91.08 1.96 165.55 9.88 -11.28 167.29 -0.00 -0.00 71.16 -10.74 37.99 -17.64 -0.90 -13.39 -6.27 7.94 55.68 -14.97 -4.79 29.57 7.33 0.00 -1.09 0.19 -9.43 -33.65 12.35 -2.16 34.51 6.96 0.00 0.00 0.00 0.00 0.00 0.00
-152.6868 96.0620 -193.5716 -1.95 8.09 32.30 -4.21 -15.24 -0.30 -2.18 -0.96 0.60 2.29 14.26 -0.11 0.00 0.00 0.00 0.00 0.00 0.00 -84.35 -0.85 -166.07 -4.71 -16.83 -159.37 0.00 -0.00 -49.25 17.14 36.42 14.45 91.12 2.01 165.42 9.70 -11.61 166.62 -0.00 -0.00 71.11 -11.14 37.59 -17.32 -1.41 -15.62 -6.05 9.28 58.26 -16.56 -4.52 30.98 6.22 0.00 -1.12 0.20 -9.51 -32.95 13.48 -2.11 34.13 6.86 0.00 0.00 0.00 0.00 0.00 0.00
-152.0401 96.2271 -192.8998 -1.70 8.31 32.18 -4.47 -15.33 -0.40 -2.31 -1.06 0.53 2.38 14.25 -0.16 0.00 0.00 0.00 0.00 0.00 0.00 -84.47 -0.75 -166.06 -5.09 -17.36 -160.00 0.00 -0.00 -48.82 15.31 37.68 16.05 91.06 1.89 165.45 9.33 -11.81 165.85 -0.00 -0.00 71.08 -10.79 37.27 -17.59 -1.82 -17.68 -5.65 10.63 60.48 -18.14 -3.92 31.36 4.90 0.00 -0.94 0.17 -9.75 -32.13 14.23 -2.04 33.67 6.75 0.00 0.00 0.00 0.00 0.00 0.00
-151.4081 96.4314 -192.2534 -1.54 8.23 32.13 -4.84 -15.10 -0.88 -2.15 -1.06 -0.09 2.64 14.09 -0.48 0.00 0.00 0.00 0.00 0.00 0.00 -85.19 -1.43 -166.34 -5.83 -17.48 -160.23 0.00 -0.00 -48.50 15.21 38.79 17.12 91.57 2.24 165.46 9.72 -11.92 165.45 -0.00 -0.00 70.93 -10.15 37.91 -17.11 -1.99 -19.29 -5.45 11.96 62.33 -19.65 -3.32 30.87 3.86 0.00 -0.62 0.11 -9.82 -31.04 14.93 -1.96 33.10 6.60 0.00 0.00 0.00 0.00 0.00 0.00
-150.7635 96.5972 -191.6250 -1.48 8.16 32.36 -4.55 -14.96 -0.75 -2.27 -1.10 0.04 2.30 13.90 -0.37 0.00 0.00 0.00 0.00 0.00 0.00 -85.23 -0.59 -166.39 -5.80 -18.17 -160.85 0.00 -0.00 -48.30 15.62 38.65 16.64 90.90 1.55 165.82 9.02 -11.98 164.52 -0.00 -0.00 70.89 -9.27 38.15 -17.21 -2.18 -20.81 -5.59 13.26 63.92 -21.11 -2.85 29.96 3.15 0.00 -0.35 0.06 -10.17 -29.86 14.75 -1.87 32.41 6.43 0.00 0.00 0.00 0.00 0.00 0.00
-150.1110 96.7674 -190.9862 -1.45 8.13 32.57 -4.37 -14.86 -0.75 -2.36 -1.23 0.00 2.02 13.67 -0.36 0.00 0.00 0.00 0.00 0.00 0.00 -85.31 -0.23 -166.57 -5.94 -18.74 -161.45 0.00 -0.00 -48.18 15.44 38.66 15.37 90.57 1.24 166.11 8.66 -12.16 163.50 -0.00 -0.00 70.82 -8.96 38.07 -17.41 -2.19 -22.25 -5.48 14.44 65.18 -22.42 -2.46 28.89 2.62 0.00 -0.16 0.03 -10.44 -28.78 14.89 -1.77 31.69 6.25 0.00 0.00 0.00 0.00 0.00 0.00
-149.4638 96.9592 -190.3402 -1.49 7.96 32.75 -4.10 -14.74 -0.85 -2.31 -1.25 -0.19 1.73 13.56 -0.41 0.00 0.00 0.00 0.00 0.00 0.00 -85.63 -0.11 -166.67 -6.28 -19.59 -161.92 0.00 -0.00 -48.22 16.32 38.35 13.72 90.15 1.13 166.23 8.32 -12.37 162.76 -0.00 -0.00 70.67 -9.03 38.32 -17.30 -1.95 -23.51 -5.30 15.45 66.17 -23.53 -2.04 27.90 1.97 0.00 -0.11 0.02 -10.27 -27.70 15.90 -1.68 30.91 6.06 0.00 0.00 0.00 0.00 0.00 0.00
